<svg width="70" height="76" viewBox="0 0 70 76" fill="none" xmlns="http://www.w3.org/2000/svg">
<path d="M0 10C0 4.47715 4.47715 0 10 0H60C65.5229 0 70 4.47715 70 10V66C70 71.5229 65.5229 76 60 76H10C4.47715 76 0 71.5229 0 66V10Z" fill="#B2E3FF"/>
<path d="M45.6667 48.6667H24.3333C22.8606 48.6667 21.6667 47.4728 21.6667 46V30C21.6667 28.5273 22.8606 27.3334 24.3333 27.3334H45.6667C47.1394 27.3334 48.3333 28.5273 48.3333 30V46C48.3333 47.4728 47.1394 48.6667 45.6667 48.6667ZM24.3333 38V46H45.6667V38H24.3333ZM24.3333 30V32.6667H45.6667V30H24.3333ZM36.3333 43.3334H27V40.6667H36.3333V43.3334Z" fill="#23A6F0"/>
</svg>
