<svg width="70" height="76" viewBox="0 0 70 76" fill="none" xmlns="http://www.w3.org/2000/svg">
<path d="M0 10C0 4.47715 4.47715 0 10 0H60C65.5229 0 70 4.47715 70 10V66C70 71.5229 65.5229 76 60 76H10C4.47715 76 0 71.5229 0 66V10Z" fill="#B3E3FF"/>
<path d="M35 51.3333C27.6362 51.3333 21.6667 45.3638 21.6667 38C21.6667 30.6362 27.6362 24.6666 35 24.6666C42.3638 24.6666 48.3333 30.6362 48.3333 38C48.3252 45.3604 42.3604 51.3252 35 51.3333ZM35 27.3333C29.109 27.3333 24.3333 32.1089 24.3333 38C24.3333 43.891 29.109 48.6666 35 48.6666C40.891 48.6666 45.6667 43.891 45.6667 38C45.66 32.1117 40.8883 27.3399 35 27.3333ZM40.3333 44.6666H29.6667V42H40.3333V44.6666ZM30.3333 38C29.2288 38 28.3333 37.1045 28.3333 36C28.3333 34.8954 29.2288 34 30.3333 34C31.4379 34 32.3333 34.8954 32.3333 36C32.3333 37.1045 31.4379 38 30.3333 38ZM39.6573 37.9813C38.5579 37.9813 37.6667 37.09 37.6667 35.9906C37.6667 34.8912 38.5579 34 39.6573 34C40.7567 34 41.648 34.8912 41.648 35.9906C41.6465 37.0894 40.7561 37.9798 39.6573 37.9813Z" fill="#23A6F0"/>
</svg>
